<svg width="115" height="125" viewBox="0 0 115 125" fill="none" xmlns="http://www.w3.org/2000/svg">
<path opacity="0.253397" fill-rule="evenodd" clip-rule="evenodd" d="M20.3638 89.0108C20.3638 89.0108 20.935 85.8522 23.1812 93.2799C25.4274 100.708 50.8263 116.965 59.3284 103.799C67.8304 90.6328 79.8506 105.407 88.1538 101.455C96.457 97.504 97.7722 92.2892 91.5832 79.7238C85.3942 67.1585 100.618 51.8471 85.4426 42.0034C70.267 32.1597 82.0153 34.578 82.0153 34.578L81.938 74.7666L61.6239 93.2045L20.3638 89.0108Z" fill="url(#paint0_linear)"/>
<path opacity="0.518059" fill-rule="evenodd" clip-rule="evenodd" d="M80.5929 49.894C80.5929 49.894 78.8284 49.7912 82.7359 48.0389C86.6435 46.2866 93.8157 31.0729 86.0485 27.2442C78.2812 23.4155 85.5445 15.7346 82.8259 11.3905C80.1073 7.04632 77.169 6.66991 70.7197 10.9615C64.2705 15.2531 51.8285 3.79068 47.4719 12.8896C43.1153 21.9885 50.5154 10.9414 50.5154 10.9414L68.6607 16.6563L80.1047 26.6886L80.5929 49.894Z" fill="url(#paint1_linear)"/>
<circle cx="44.8541" cy="53.8248" r="39.8541" stroke="#FAA9C6" stroke-width="10"/>
<path d="M42.1566 14.0621C49.2976 13.5777 56.4373 15.0252 62.8257 18.2528C69.2141 21.4803 74.6155 26.3687 78.4624 32.4045C82.3093 38.4403 84.4597 45.4006 84.6879 52.5544C84.916 59.7082 83.2134 66.7914 79.7589 73.06C76.3044 79.3287 71.2255 84.5513 65.0558 88.1793C58.886 91.8074 51.853 93.707 44.6956 93.6785C37.5382 93.6501 30.5206 91.6946 24.3799 88.0176C18.2391 84.3407 13.2019 79.0778 9.79737 72.7819" stroke="url(#paint2_linear)" stroke-width="10" stroke-linecap="round"/>
<defs>
<linearGradient id="paint0_linear" x1="23.4264" y1="50.8866" x2="142.469" y2="94.8507" gradientUnits="userSpaceOnUse">
<stop stop-color="#FD749B"/>
<stop offset="1" stop-color="#281AC8"/>
</linearGradient>
<linearGradient id="paint1_linear" x1="58.7711" y1="50.571" x2="75.401" y2="-18.3963" gradientUnits="userSpaceOnUse">
<stop stop-color="#FD749B"/>
<stop offset="1" stop-color="#281AC8"/>
</linearGradient>
<linearGradient id="paint2_linear" x1="49.3395" y1="-5.15002" x2="54.4006" y2="153.766" gradientUnits="userSpaceOnUse">
<stop stop-color="#FD749B"/>
<stop offset="1" stop-color="#281AC8"/>
</linearGradient>
</defs>
</svg>
